<svg aria-hidden="true" style="position: absolute; width: 0; height: 0; overflow: hidden;" version="1.1" xmlns="http://www.w3.org/2000/svg" xmlns:xlink="http://www.w3.org/1999/xlink">
<defs>
<symbol id="icon-icon_apple" viewBox="0 0 27 32">
<path d="M19.233 0.052c-1.489 0.395-2.635 0.931-3.51 1.646-0.395 0.323-0.842 0.823-1.149 1.283-0.839 1.257-1.29 2.684-1.401 4.438l-0.023 0.353h0.111c0.336 0 1.476-0.183 1.845-0.297 0.281-0.085 0.745-0.307 1.025-0.487 0.784-0.509 1.734-1.499 2.305-2.407 0.496-0.787 0.895-1.861 1.078-2.9 0.098-0.558 0.052-1.639-0.069-1.669-0.020-0.003-0.114 0.013-0.212 0.039z"></path>
<path d="M18.971 7.285c-0.764 0.104-1.489 0.278-2.491 0.604-0.807 0.261-1.495 0.46-1.949 0.558-0.209 0.042-0.408 0.059-0.8 0.056-0.594 0-0.803-0.039-1.976-0.356-2.348-0.64-3.327-0.807-4.408-0.754-2.054 0.095-3.722 0.98-5.084 2.687-1.548 1.943-2.289 4.48-2.22 7.602 0.033 1.502 0.232 2.798 0.663 4.3 0.953 3.337 3.047 7.033 4.908 8.666 0.477 0.418 0.856 0.679 1.326 0.911 1.215 0.601 2.168 0.584 3.866-0.072 0.833-0.32 1.574-0.558 2.011-0.653 0.385-0.082 0.49-0.088 1.11-0.088 0.976-0.003 1.437 0.088 2.906 0.584 2.178 0.731 3.069 0.78 4.215 0.232 0.601-0.287 1.087-0.647 1.675-1.231 1.022-1.019 2.132-2.625 3.007-4.356 0.411-0.81 0.598-1.234 0.869-1.976 0.251-0.692 0.251-0.624-0.010-0.715-0.715-0.251-1.335-0.676-2.002-1.362-1.175-1.215-1.907-2.766-2.087-4.428-0.052-0.46-0.042-1.303 0.013-1.744 0.17-1.296 0.686-2.475 1.544-3.54 0.304-0.372 0.931-1.006 1.45-1.466l0.382-0.34-0.065-0.085c-0.036-0.046-0.222-0.258-0.415-0.473-1.329-1.486-2.838-2.318-4.62-2.55-0.418-0.052-1.456-0.062-1.819-0.013z"></path>
</symbol>
<symbol id="icon-facebook" viewBox="0 0 19 32">
<path d="M13.077 7.556h3.883v-5.734h-4.563v0.021c-5.527 0.194-6.661 3.302-6.761 6.567h-0.011v2.863h-3.763v5.616h3.763v15.051h5.675v-15.051h4.646l0.895-5.616h-5.542v-1.729c0-1.101 0.732-1.987 1.777-1.987z"></path>
</symbol>
<symbol id="icon-icon_android" viewBox="0 0 28 32">
<path d="M7.564 4.655c-1.018 1.018-1.745 3.345-1.745 5.236 0 3.055-0.291 3.2-2.182 1.745-1.891-1.6-2.182-1.018-2.182 4.364 0 4.8 0.436 5.964 2.182 5.236 1.309-0.436 2.182 0 2.182 1.309 0 1.164 0.727 2.182 1.455 2.182 0.873 0 1.455 1.309 1.455 2.909 0 3.927 4.073 3.636 4.8-0.436l0.582-3.2 0.291 3.2c0.145 4.073 4.509 4.509 4.509 0.436 0-1.6 0.727-2.909 1.455-2.909 0.873 0 1.455-1.018 1.455-2.182 0-1.309 0.873-1.745 2.182-1.309 1.745 0.727 2.182-0.436 2.182-5.091 0-5.673-1.891-8-3.345-4.218-0.436 1.018-0.873 0.291-0.873-1.891-0.145-4.945-2.764-7.127-8.145-7.127-2.473 0-5.236 0.727-6.255 1.745z"></path>
</symbol>
</defs>
</svg>
